<mxfile host="app.diagrams.net" modified="2024-03-26T21:43:02.116Z" agent="Mozilla/5.0 (Windows NT 10.0; Win64; x64) AppleWebKit/537.36 (KHTML, like Gecko) Chrome/123.0.0.0 Safari/537.36" etag="ULvyGwgLemBJx7GhV7lA" version="24.1.0" type="device">
  <diagram name="Page-1" id="LbJUKonwbourqvJiCGiW">
    <mxGraphModel dx="1050" dy="565" grid="0" gridSize="10" guides="1" tooltips="1" connect="1" arrows="1" fold="1" page="1" pageScale="1" pageWidth="850" pageHeight="1100" math="0" shadow="0">
      <root>
        <mxCell id="0" />
        <mxCell id="1" parent="0" />
        <mxCell id="G7QfSokvVwDWU3bzImGe-1" value="&lt;b&gt;Start&lt;/b&gt;" style="ellipse;whiteSpace=wrap;html=1;fillColor=#fff2cc;strokeColor=#d6b656;" parent="1" vertex="1">
          <mxGeometry x="370" y="60" width="90" height="50" as="geometry" />
        </mxCell>
        <mxCell id="G7QfSokvVwDWU3bzImGe-2" value="&lt;b&gt;Have an account?&lt;/b&gt;" style="rhombus;whiteSpace=wrap;html=1;fillColor=#76608a;strokeColor=#432D57;fontColor=#ffffff;" parent="1" vertex="1">
          <mxGeometry x="370" y="160" width="90" height="80" as="geometry" />
        </mxCell>
        <mxCell id="G7QfSokvVwDWU3bzImGe-4" value="" style="endArrow=classic;html=1;rounded=0;entryX=0.5;entryY=0;entryDx=0;entryDy=0;exitX=0.5;exitY=1;exitDx=0;exitDy=0;" parent="1" source="G7QfSokvVwDWU3bzImGe-1" target="G7QfSokvVwDWU3bzImGe-2" edge="1">
          <mxGeometry width="50" height="50" relative="1" as="geometry">
            <mxPoint x="390" y="130" as="sourcePoint" />
            <mxPoint x="440" y="110" as="targetPoint" />
          </mxGeometry>
        </mxCell>
        <mxCell id="G7QfSokvVwDWU3bzImGe-5" value="&lt;b&gt;Login&lt;/b&gt;" style="rounded=0;whiteSpace=wrap;html=1;fillColor=#d5e8d4;strokeColor=#82b366;" parent="1" vertex="1">
          <mxGeometry x="130" y="180" width="120" height="40" as="geometry" />
        </mxCell>
        <mxCell id="G7QfSokvVwDWU3bzImGe-58" style="edgeStyle=orthogonalEdgeStyle;rounded=0;orthogonalLoop=1;jettySize=auto;html=1;entryX=0.5;entryY=0;entryDx=0;entryDy=0;" parent="1" source="G7QfSokvVwDWU3bzImGe-6" target="G7QfSokvVwDWU3bzImGe-56" edge="1">
          <mxGeometry relative="1" as="geometry" />
        </mxCell>
        <mxCell id="G7QfSokvVwDWU3bzImGe-6" value="&lt;b&gt;Registration&lt;/b&gt;" style="rounded=0;whiteSpace=wrap;html=1;fillColor=#d5e8d4;strokeColor=#82b366;" parent="1" vertex="1">
          <mxGeometry x="545" y="180" width="120" height="40" as="geometry" />
        </mxCell>
        <mxCell id="G7QfSokvVwDWU3bzImGe-8" value="" style="endArrow=classic;html=1;rounded=0;exitX=0;exitY=0.5;exitDx=0;exitDy=0;entryX=1;entryY=0.5;entryDx=0;entryDy=0;" parent="1" source="G7QfSokvVwDWU3bzImGe-2" target="G7QfSokvVwDWU3bzImGe-5" edge="1">
          <mxGeometry width="50" height="50" relative="1" as="geometry">
            <mxPoint x="260" y="220" as="sourcePoint" />
            <mxPoint x="310" y="170" as="targetPoint" />
          </mxGeometry>
        </mxCell>
        <mxCell id="G7QfSokvVwDWU3bzImGe-9" value="" style="endArrow=classic;html=1;rounded=0;exitX=1;exitY=0.5;exitDx=0;exitDy=0;entryX=0;entryY=0.5;entryDx=0;entryDy=0;" parent="1" source="G7QfSokvVwDWU3bzImGe-2" target="G7QfSokvVwDWU3bzImGe-6" edge="1">
          <mxGeometry width="50" height="50" relative="1" as="geometry">
            <mxPoint x="580" y="160" as="sourcePoint" />
            <mxPoint x="460" y="160" as="targetPoint" />
          </mxGeometry>
        </mxCell>
        <mxCell id="G7QfSokvVwDWU3bzImGe-10" value="&lt;b&gt;Username/Email and&amp;nbsp;&lt;/b&gt;&lt;div&gt;&lt;b&gt;Password&lt;/b&gt;&lt;/div&gt;" style="shape=parallelogram;perimeter=parallelogramPerimeter;whiteSpace=wrap;html=1;fixedSize=1;fillColor=#dae8fc;strokeColor=#6c8ebf;" parent="1" vertex="1">
          <mxGeometry x="110" y="260" width="180" height="40" as="geometry" />
        </mxCell>
        <mxCell id="G7QfSokvVwDWU3bzImGe-11" value="" style="endArrow=classic;html=1;rounded=0;exitX=0.5;exitY=1;exitDx=0;exitDy=0;entryX=0.449;entryY=0.005;entryDx=0;entryDy=0;entryPerimeter=0;" parent="1" source="G7QfSokvVwDWU3bzImGe-5" target="G7QfSokvVwDWU3bzImGe-10" edge="1">
          <mxGeometry width="50" height="50" relative="1" as="geometry">
            <mxPoint x="260" y="250" as="sourcePoint" />
            <mxPoint x="310" y="200" as="targetPoint" />
          </mxGeometry>
        </mxCell>
        <mxCell id="G7QfSokvVwDWU3bzImGe-12" value="&lt;b&gt;Succeed&lt;/b&gt;&lt;div&gt;&lt;b&gt;?&lt;/b&gt;&lt;/div&gt;" style="rhombus;whiteSpace=wrap;html=1;fillColor=#76608a;strokeColor=#432D57;fontColor=#ffffff;" parent="1" vertex="1">
          <mxGeometry x="145" y="340" width="90" height="80" as="geometry" />
        </mxCell>
        <mxCell id="G7QfSokvVwDWU3bzImGe-13" value="" style="endArrow=classic;html=1;rounded=0;exitX=0.5;exitY=1;exitDx=0;exitDy=0;entryX=0.449;entryY=0.005;entryDx=0;entryDy=0;entryPerimeter=0;" parent="1" edge="1">
          <mxGeometry width="50" height="50" relative="1" as="geometry">
            <mxPoint x="189.5" y="300" as="sourcePoint" />
            <mxPoint x="190.5" y="340" as="targetPoint" />
          </mxGeometry>
        </mxCell>
        <mxCell id="G7QfSokvVwDWU3bzImGe-17" value="&lt;b&gt;Forgot Password&lt;/b&gt;" style="rounded=0;whiteSpace=wrap;html=1;fillColor=#d5e8d4;strokeColor=#82b366;" parent="1" vertex="1">
          <mxGeometry x="270" y="450" width="110" height="40" as="geometry" />
        </mxCell>
        <mxCell id="G7QfSokvVwDWU3bzImGe-18" value="" style="endArrow=classic;html=1;rounded=0;exitX=1;exitY=0.5;exitDx=0;exitDy=0;entryX=0;entryY=0.5;entryDx=0;entryDy=0;" parent="1" target="G7QfSokvVwDWU3bzImGe-29" edge="1">
          <mxGeometry width="50" height="50" relative="1" as="geometry">
            <mxPoint x="235" y="379.5" as="sourcePoint" />
            <mxPoint x="300" y="380" as="targetPoint" />
          </mxGeometry>
        </mxCell>
        <mxCell id="G7QfSokvVwDWU3bzImGe-46" style="edgeStyle=orthogonalEdgeStyle;rounded=0;orthogonalLoop=1;jettySize=auto;html=1;exitX=1;exitY=0.5;exitDx=0;exitDy=0;entryX=0.5;entryY=1;entryDx=0;entryDy=0;" parent="1" source="G7QfSokvVwDWU3bzImGe-20" target="G7QfSokvVwDWU3bzImGe-44" edge="1">
          <mxGeometry relative="1" as="geometry" />
        </mxCell>
        <mxCell id="G7QfSokvVwDWU3bzImGe-20" value="&lt;b&gt;Recover&lt;/b&gt;" style="shape=parallelogram;perimeter=parallelogramPerimeter;whiteSpace=wrap;html=1;fixedSize=1;fillColor=#dae8fc;strokeColor=#6c8ebf;" parent="1" vertex="1">
          <mxGeometry x="256.25" y="530" width="127.5" height="40" as="geometry" />
        </mxCell>
        <mxCell id="G7QfSokvVwDWU3bzImGe-23" value="&lt;b&gt;YES&lt;/b&gt;&lt;div&gt;&lt;br&gt;&lt;/div&gt;" style="text;html=1;align=center;verticalAlign=middle;whiteSpace=wrap;rounded=0;" parent="1" vertex="1">
          <mxGeometry x="290" y="180" width="60" height="30" as="geometry" />
        </mxCell>
        <mxCell id="G7QfSokvVwDWU3bzImGe-24" value="&lt;b&gt;YES&lt;/b&gt;&lt;div&gt;&lt;br&gt;&lt;/div&gt;" style="text;html=1;align=center;verticalAlign=middle;whiteSpace=wrap;rounded=0;" parent="1" vertex="1">
          <mxGeometry x="140" y="440" width="60" height="30" as="geometry" />
        </mxCell>
        <mxCell id="G7QfSokvVwDWU3bzImGe-25" value="&lt;b&gt;NO&lt;/b&gt;" style="text;html=1;align=center;verticalAlign=middle;whiteSpace=wrap;rounded=0;" parent="1" vertex="1">
          <mxGeometry x="470" y="170" width="60" height="30" as="geometry" />
        </mxCell>
        <mxCell id="G7QfSokvVwDWU3bzImGe-26" value="&lt;b&gt;NO&lt;/b&gt;" style="text;html=1;align=center;verticalAlign=middle;whiteSpace=wrap;rounded=0;" parent="1" vertex="1">
          <mxGeometry x="250" y="355" width="60" height="30" as="geometry" />
        </mxCell>
        <mxCell id="G7QfSokvVwDWU3bzImGe-110" style="edgeStyle=orthogonalEdgeStyle;rounded=0;orthogonalLoop=1;jettySize=auto;html=1;" parent="1" source="G7QfSokvVwDWU3bzImGe-27" edge="1">
          <mxGeometry relative="1" as="geometry">
            <mxPoint x="192.5" y="630" as="targetPoint" />
          </mxGeometry>
        </mxCell>
        <mxCell id="G7QfSokvVwDWU3bzImGe-27" value="&lt;b&gt;Access System&lt;/b&gt;" style="rounded=0;whiteSpace=wrap;html=1;fillColor=#d5e8d4;strokeColor=#82b366;" parent="1" vertex="1">
          <mxGeometry x="130" y="480" width="125" height="40" as="geometry" />
        </mxCell>
        <mxCell id="G7QfSokvVwDWU3bzImGe-28" value="" style="endArrow=classic;html=1;rounded=0;entryX=0.5;entryY=0;entryDx=0;entryDy=0;" parent="1" target="G7QfSokvVwDWU3bzImGe-27" edge="1">
          <mxGeometry width="50" height="50" relative="1" as="geometry">
            <mxPoint x="190" y="420" as="sourcePoint" />
            <mxPoint x="240" y="370" as="targetPoint" />
          </mxGeometry>
        </mxCell>
        <mxCell id="G7QfSokvVwDWU3bzImGe-29" value="" style="ellipse;whiteSpace=wrap;html=1;aspect=fixed;fillColor=#f8cecc;strokeColor=#b85450;" parent="1" vertex="1">
          <mxGeometry x="315" y="375" width="10" height="10" as="geometry" />
        </mxCell>
        <mxCell id="G7QfSokvVwDWU3bzImGe-31" value="" style="endArrow=classic;html=1;rounded=0;exitX=0.5;exitY=1;exitDx=0;exitDy=0;" parent="1" source="G7QfSokvVwDWU3bzImGe-29" edge="1">
          <mxGeometry width="50" height="50" relative="1" as="geometry">
            <mxPoint x="310" y="400" as="sourcePoint" />
            <mxPoint x="320" y="450" as="targetPoint" />
          </mxGeometry>
        </mxCell>
        <mxCell id="G7QfSokvVwDWU3bzImGe-34" value="" style="endArrow=classic;html=1;rounded=0;exitX=0.422;exitY=0.975;exitDx=0;exitDy=0;exitPerimeter=0;" parent="1" source="G7QfSokvVwDWU3bzImGe-17" edge="1">
          <mxGeometry width="50" height="50" relative="1" as="geometry">
            <mxPoint x="333" y="490" as="sourcePoint" />
            <mxPoint x="316" y="530" as="targetPoint" />
          </mxGeometry>
        </mxCell>
        <mxCell id="G7QfSokvVwDWU3bzImGe-39" value="" style="endArrow=classic;html=1;rounded=0;entryX=0;entryY=0.5;entryDx=0;entryDy=0;" parent="1" source="G7QfSokvVwDWU3bzImGe-44" edge="1">
          <mxGeometry width="50" height="50" relative="1" as="geometry">
            <mxPoint x="325" y="380" as="sourcePoint" />
            <mxPoint x="395" y="379.5" as="targetPoint" />
          </mxGeometry>
        </mxCell>
        <mxCell id="G7QfSokvVwDWU3bzImGe-45" value="" style="endArrow=classic;html=1;rounded=0;entryX=0;entryY=0.5;entryDx=0;entryDy=0;" parent="1" target="G7QfSokvVwDWU3bzImGe-44" edge="1">
          <mxGeometry width="50" height="50" relative="1" as="geometry">
            <mxPoint x="325" y="380" as="sourcePoint" />
            <mxPoint x="395" y="379.5" as="targetPoint" />
          </mxGeometry>
        </mxCell>
        <mxCell id="G7QfSokvVwDWU3bzImGe-54" style="edgeStyle=orthogonalEdgeStyle;rounded=0;orthogonalLoop=1;jettySize=auto;html=1;exitX=0.5;exitY=0;exitDx=0;exitDy=0;entryX=1;entryY=1;entryDx=0;entryDy=0;" parent="1" source="G7QfSokvVwDWU3bzImGe-44" target="G7QfSokvVwDWU3bzImGe-5" edge="1">
          <mxGeometry relative="1" as="geometry">
            <Array as="points">
              <mxPoint x="405" y="250" />
              <mxPoint x="250" y="250" />
            </Array>
          </mxGeometry>
        </mxCell>
        <mxCell id="G7QfSokvVwDWU3bzImGe-44" value="" style="ellipse;whiteSpace=wrap;html=1;aspect=fixed;fillColor=#f8cecc;strokeColor=#b85450;" parent="1" vertex="1">
          <mxGeometry x="400" y="375" width="10" height="10" as="geometry" />
        </mxCell>
        <mxCell id="G7QfSokvVwDWU3bzImGe-119" style="edgeStyle=orthogonalEdgeStyle;rounded=0;orthogonalLoop=1;jettySize=auto;html=1;exitX=0;exitY=0.5;exitDx=0;exitDy=0;entryX=1;entryY=0.5;entryDx=0;entryDy=0;" parent="1" source="G7QfSokvVwDWU3bzImGe-56" target="G7QfSokvVwDWU3bzImGe-117" edge="1">
          <mxGeometry relative="1" as="geometry" />
        </mxCell>
        <mxCell id="G7QfSokvVwDWU3bzImGe-121" style="edgeStyle=orthogonalEdgeStyle;rounded=0;orthogonalLoop=1;jettySize=auto;html=1;exitX=0.5;exitY=1;exitDx=0;exitDy=0;entryX=0.5;entryY=0;entryDx=0;entryDy=0;" parent="1" source="G7QfSokvVwDWU3bzImGe-56" target="G7QfSokvVwDWU3bzImGe-68" edge="1">
          <mxGeometry relative="1" as="geometry" />
        </mxCell>
        <mxCell id="G7QfSokvVwDWU3bzImGe-56" value="&lt;b&gt;Is Admin&lt;/b&gt;&lt;div&gt;&lt;b&gt;?&lt;/b&gt;&lt;/div&gt;" style="rhombus;whiteSpace=wrap;html=1;fillColor=#76608a;strokeColor=#432D57;fontColor=#ffffff;" parent="1" vertex="1">
          <mxGeometry x="560" y="260" width="90" height="80" as="geometry" />
        </mxCell>
        <mxCell id="G7QfSokvVwDWU3bzImGe-101" style="edgeStyle=orthogonalEdgeStyle;rounded=0;orthogonalLoop=1;jettySize=auto;html=1;exitX=0.5;exitY=1;exitDx=0;exitDy=0;entryX=1;entryY=0.5;entryDx=0;entryDy=0;" parent="1" source="G7QfSokvVwDWU3bzImGe-57" target="G7QfSokvVwDWU3bzImGe-77" edge="1">
          <mxGeometry relative="1" as="geometry">
            <mxPoint x="810" y="600" as="targetPoint" />
            <Array as="points">
              <mxPoint x="784" y="480" />
              <mxPoint x="811" y="480" />
              <mxPoint x="811" y="591" />
            </Array>
          </mxGeometry>
        </mxCell>
        <mxCell id="G7QfSokvVwDWU3bzImGe-129" style="edgeStyle=orthogonalEdgeStyle;rounded=0;orthogonalLoop=1;jettySize=auto;html=1;exitX=1;exitY=0.5;exitDx=0;exitDy=0;entryX=1;entryY=0.5;entryDx=0;entryDy=0;" parent="1" source="G7QfSokvVwDWU3bzImGe-57" target="G7QfSokvVwDWU3bzImGe-6" edge="1">
          <mxGeometry relative="1" as="geometry" />
        </mxCell>
        <mxCell id="G7QfSokvVwDWU3bzImGe-57" value="&lt;b&gt;Is&amp;nbsp;&lt;/b&gt;&lt;div&gt;&lt;b&gt;Contestant&lt;/b&gt;&lt;div&gt;&lt;b&gt;?&lt;/b&gt;&lt;/div&gt;&lt;/div&gt;" style="rhombus;whiteSpace=wrap;html=1;fillColor=#76608a;strokeColor=#432D57;fontColor=#ffffff;" parent="1" vertex="1">
          <mxGeometry x="678.75" y="260" width="90" height="80" as="geometry" />
        </mxCell>
        <mxCell id="G7QfSokvVwDWU3bzImGe-73" style="edgeStyle=orthogonalEdgeStyle;rounded=0;orthogonalLoop=1;jettySize=auto;html=1;exitX=0.5;exitY=1;exitDx=0;exitDy=0;entryX=0.5;entryY=0;entryDx=0;entryDy=0;" parent="1" source="G7QfSokvVwDWU3bzImGe-68" target="G7QfSokvVwDWU3bzImGe-72" edge="1">
          <mxGeometry relative="1" as="geometry" />
        </mxCell>
        <mxCell id="G7QfSokvVwDWU3bzImGe-68" value="&lt;b&gt;Pincode&lt;/b&gt;" style="shape=parallelogram;perimeter=parallelogramPerimeter;whiteSpace=wrap;html=1;fixedSize=1;fillColor=#dae8fc;strokeColor=#6c8ebf;" parent="1" vertex="1">
          <mxGeometry x="541.25" y="370" width="127.5" height="40" as="geometry" />
        </mxCell>
        <mxCell id="G7QfSokvVwDWU3bzImGe-78" style="edgeStyle=orthogonalEdgeStyle;rounded=0;orthogonalLoop=1;jettySize=auto;html=1;entryX=0.5;entryY=0;entryDx=0;entryDy=0;" parent="1" source="G7QfSokvVwDWU3bzImGe-72" target="G7QfSokvVwDWU3bzImGe-77" edge="1">
          <mxGeometry relative="1" as="geometry" />
        </mxCell>
        <mxCell id="G7QfSokvVwDWU3bzImGe-72" value="&lt;b&gt;Correct&lt;/b&gt;&lt;div&gt;&lt;b&gt;?&lt;/b&gt;&lt;/div&gt;" style="rhombus;whiteSpace=wrap;html=1;fillColor=#76608a;strokeColor=#432D57;fontColor=#ffffff;" parent="1" vertex="1">
          <mxGeometry x="560" y="450" width="90" height="80" as="geometry" />
        </mxCell>
        <mxCell id="G7QfSokvVwDWU3bzImGe-80" style="edgeStyle=orthogonalEdgeStyle;rounded=0;orthogonalLoop=1;jettySize=auto;html=1;entryX=0.5;entryY=0;entryDx=0;entryDy=0;" parent="1" source="G7QfSokvVwDWU3bzImGe-77" target="G7QfSokvVwDWU3bzImGe-79" edge="1">
          <mxGeometry relative="1" as="geometry" />
        </mxCell>
        <mxCell id="G7QfSokvVwDWU3bzImGe-77" value="&lt;b&gt;Profile informations&lt;/b&gt;" style="shape=parallelogram;perimeter=parallelogramPerimeter;whiteSpace=wrap;html=1;fixedSize=1;fillColor=#dae8fc;strokeColor=#6c8ebf;" parent="1" vertex="1">
          <mxGeometry x="515" y="590" width="180" height="40" as="geometry" />
        </mxCell>
        <mxCell id="G7QfSokvVwDWU3bzImGe-89" style="edgeStyle=orthogonalEdgeStyle;rounded=0;orthogonalLoop=1;jettySize=auto;html=1;entryX=0.5;entryY=1;entryDx=0;entryDy=0;" parent="1" source="G7QfSokvVwDWU3bzImGe-79" target="G7QfSokvVwDWU3bzImGe-84" edge="1">
          <mxGeometry relative="1" as="geometry" />
        </mxCell>
        <mxCell id="G7QfSokvVwDWU3bzImGe-127" style="edgeStyle=orthogonalEdgeStyle;rounded=0;orthogonalLoop=1;jettySize=auto;html=1;exitX=0.5;exitY=1;exitDx=0;exitDy=0;entryX=0;entryY=0.5;entryDx=0;entryDy=0;" parent="1" source="G7QfSokvVwDWU3bzImGe-79" target="G7QfSokvVwDWU3bzImGe-5" edge="1">
          <mxGeometry relative="1" as="geometry">
            <mxPoint x="50" y="190" as="targetPoint" />
            <Array as="points">
              <mxPoint x="605" y="760" />
              <mxPoint x="40" y="760" />
              <mxPoint x="40" y="200" />
            </Array>
          </mxGeometry>
        </mxCell>
        <mxCell id="G7QfSokvVwDWU3bzImGe-79" value="&lt;b&gt;Is Valid&lt;/b&gt;&lt;div&gt;&lt;b&gt;?&lt;/b&gt;&lt;/div&gt;" style="rhombus;whiteSpace=wrap;html=1;fillColor=#76608a;strokeColor=#432D57;fontColor=#ffffff;" parent="1" vertex="1">
          <mxGeometry x="560" y="660" width="90" height="80" as="geometry" />
        </mxCell>
        <mxCell id="G7QfSokvVwDWU3bzImGe-90" style="rounded=0;orthogonalLoop=1;jettySize=auto;html=1;elbow=vertical;edgeStyle=elbowEdgeStyle;entryX=0.13;entryY=1.085;entryDx=0;entryDy=0;entryPerimeter=0;" parent="1" source="G7QfSokvVwDWU3bzImGe-117" target="G7QfSokvVwDWU3bzImGe-6" edge="1">
          <mxGeometry relative="1" as="geometry">
            <mxPoint x="500" y="240" as="targetPoint" />
            <Array as="points">
              <mxPoint x="520" y="260" />
              <mxPoint x="510" y="354" />
            </Array>
          </mxGeometry>
        </mxCell>
        <mxCell id="G7QfSokvVwDWU3bzImGe-84" value="" style="ellipse;whiteSpace=wrap;html=1;aspect=fixed;fillColor=#f8cecc;strokeColor=#b85450;" parent="1" vertex="1">
          <mxGeometry x="460" y="485" width="10" height="10" as="geometry" />
        </mxCell>
        <mxCell id="G7QfSokvVwDWU3bzImGe-96" value="&lt;b&gt;NO&lt;/b&gt;" style="text;html=1;align=center;verticalAlign=middle;whiteSpace=wrap;rounded=0;" parent="1" vertex="1">
          <mxGeometry x="490" y="460" width="60" height="30" as="geometry" />
        </mxCell>
        <mxCell id="G7QfSokvVwDWU3bzImGe-99" value="" style="endArrow=classic;html=1;rounded=0;entryX=0.449;entryY=0.005;entryDx=0;entryDy=0;entryPerimeter=0;" parent="1" edge="1">
          <mxGeometry width="50" height="50" relative="1" as="geometry">
            <mxPoint x="720" y="240" as="sourcePoint" />
            <mxPoint x="723.5" y="260" as="targetPoint" />
          </mxGeometry>
        </mxCell>
        <mxCell id="G7QfSokvVwDWU3bzImGe-102" value="&lt;b&gt;YES&lt;/b&gt;" style="text;html=1;align=center;verticalAlign=middle;whiteSpace=wrap;rounded=0;" parent="1" vertex="1">
          <mxGeometry x="678.75" y="410" width="60" height="30" as="geometry" />
        </mxCell>
        <mxCell id="G7QfSokvVwDWU3bzImGe-103" value="&lt;b&gt;YES&lt;/b&gt;" style="text;html=1;align=center;verticalAlign=middle;whiteSpace=wrap;rounded=0;" parent="1" vertex="1">
          <mxGeometry x="560" y="540" width="60" height="30" as="geometry" />
        </mxCell>
        <mxCell id="G7QfSokvVwDWU3bzImGe-109" value="&lt;b&gt;End&lt;/b&gt;" style="ellipse;whiteSpace=wrap;html=1;fillColor=#fff2cc;strokeColor=#d6b656;" parent="1" vertex="1">
          <mxGeometry x="147.5" y="630" width="90" height="50" as="geometry" />
        </mxCell>
        <mxCell id="G7QfSokvVwDWU3bzImGe-118" value="" style="rounded=0;orthogonalLoop=1;jettySize=auto;html=1;elbow=vertical;edgeStyle=elbowEdgeStyle;entryX=0.5;entryY=1;entryDx=0;entryDy=0;" parent="1" source="G7QfSokvVwDWU3bzImGe-84" target="G7QfSokvVwDWU3bzImGe-117" edge="1">
          <mxGeometry relative="1" as="geometry">
            <mxPoint x="465" y="320" as="targetPoint" />
            <mxPoint x="465" y="485" as="sourcePoint" />
            <Array as="points" />
          </mxGeometry>
        </mxCell>
        <mxCell id="G7QfSokvVwDWU3bzImGe-117" value="" style="ellipse;whiteSpace=wrap;html=1;aspect=fixed;fillColor=#f8cecc;strokeColor=#b85450;" parent="1" vertex="1">
          <mxGeometry x="460" y="295" width="10" height="10" as="geometry" />
        </mxCell>
        <mxCell id="G7QfSokvVwDWU3bzImGe-120" value="&lt;b&gt;NO&lt;/b&gt;" style="text;html=1;align=center;verticalAlign=middle;whiteSpace=wrap;rounded=0;" parent="1" vertex="1">
          <mxGeometry x="485" y="275" width="60" height="30" as="geometry" />
        </mxCell>
        <mxCell id="G7QfSokvVwDWU3bzImGe-123" value="" style="endArrow=classic;html=1;rounded=0;entryX=1;entryY=0.5;entryDx=0;entryDy=0;exitX=0;exitY=0.5;exitDx=0;exitDy=0;exitPerimeter=0;" parent="1" source="G7QfSokvVwDWU3bzImGe-72" target="G7QfSokvVwDWU3bzImGe-84" edge="1">
          <mxGeometry width="50" height="50" relative="1" as="geometry">
            <mxPoint x="555" y="490" as="sourcePoint" />
            <mxPoint x="485" y="470" as="targetPoint" />
          </mxGeometry>
        </mxCell>
        <mxCell id="G7QfSokvVwDWU3bzImGe-128" value="" style="endArrow=none;html=1;rounded=0;" parent="1" edge="1">
          <mxGeometry width="50" height="50" relative="1" as="geometry">
            <mxPoint x="720" y="240" as="sourcePoint" />
            <mxPoint x="605" y="240.71067811865476" as="targetPoint" />
          </mxGeometry>
        </mxCell>
        <mxCell id="G7QfSokvVwDWU3bzImGe-130" value="&lt;b&gt;NO&lt;/b&gt;" style="text;html=1;align=center;verticalAlign=middle;whiteSpace=wrap;rounded=0;" parent="1" vertex="1">
          <mxGeometry x="780" y="230" width="60" height="30" as="geometry" />
        </mxCell>
        <mxCell id="G7QfSokvVwDWU3bzImGe-131" value="&lt;b&gt;YES&lt;/b&gt;&lt;div&gt;&lt;br&gt;&lt;/div&gt;" style="text;html=1;align=center;verticalAlign=middle;whiteSpace=wrap;rounded=0;" parent="1" vertex="1">
          <mxGeometry x="550" y="340" width="60" height="30" as="geometry" />
        </mxCell>
        <mxCell id="G7QfSokvVwDWU3bzImGe-136" value="&lt;b&gt;YES&lt;/b&gt;&lt;div&gt;&lt;br&gt;&lt;/div&gt;" style="text;html=1;align=center;verticalAlign=middle;whiteSpace=wrap;rounded=0;" parent="1" vertex="1">
          <mxGeometry x="315" y="740" width="60" height="20" as="geometry" />
        </mxCell>
        <mxCell id="G7QfSokvVwDWU3bzImGe-137" value="&lt;b&gt;NO&lt;/b&gt;" style="text;html=1;align=center;verticalAlign=middle;whiteSpace=wrap;rounded=0;" parent="1" vertex="1">
          <mxGeometry x="480" y="670" width="60" height="30" as="geometry" />
        </mxCell>
      </root>
    </mxGraphModel>
  </diagram>
</mxfile>
